<?xml version="1.0" standalone="no"?>
<!DOCTYPE svg PUBLIC "-//W3C//DTD SVG 20010904//EN"
 "http://www.w3.org/TR/2001/REC-SVG-20010904/DTD/svg10.dtd">
<svg version="1.0" xmlns="http://www.w3.org/2000/svg"
 width="1462.000000pt" height="1335.000000pt" viewBox="0 0 1462.000000 1335.000000"
 preserveAspectRatio="xMidYMid meet">
<metadata>
Created by potrace 1.16, written by Peter Selinger 2001-2019
</metadata>
<g transform="translate(0.000000,1335.000000) scale(0.100000,-0.100000)"
fill="#000000" stroke="none">
<path d="M7095 13339 c-842 -23 -1655 -203 -2410 -533 -424 -186 -1042 -566
-1565 -962 -195 -148 -319 -252 -459 -389 -186 -181 -288 -313 -327 -421 l-18
-51 60 -84 c69 -97 175 -208 258 -268 54 -41 60 -42 84 -30 15 8 155 138 312
290 393 380 499 474 755 666 293 220 543 372 900 548 856 420 1663 605 2647
605 1299 0 2453 -372 3458 -1113 275 -203 485 -387 846 -739 132 -129 257
-245 277 -257 l37 -23 77 48 c99 61 202 159 238 225 39 73 39 160 0 242 -54
115 -125 190 -505 533 -311 280 -552 462 -945 711 -239 152 -365 223 -630 353
-593 292 -1182 474 -1870 580 -189 29 -487 58 -665 65 -85 3 -186 7 -225 9
-38 1 -187 0 -330 -5z"/>
<path d="M8199 11340 c-89 -23 -228 -99 -314 -174 -61 -53 -119 -156 -163
-292 -47 -145 -57 -215 -56 -389 1 -141 4 -172 28 -259 59 -218 176 -374 336
-449 111 -53 277 -49 391 9 138 69 247 262 296 524 22 116 24 397 4 510 -29
166 -96 328 -172 413 -20 24 -65 58 -99 76 -51 27 -75 34 -138 37 -42 2 -93
-1 -113 -6z"/>
<path d="M6261 11315 c-134 -38 -259 -142 -320 -267 -156 -319 -70 -938 164
-1174 97 -98 188 -132 324 -121 175 15 302 86 385 215 56 88 81 150 105 259
97 435 -61 925 -343 1064 -62 30 -80 34 -165 36 -63 2 -115 -2 -150 -12z"/>
<path d="M9220 10921 c-116 -24 -216 -152 -261 -334 -28 -112 -23 -327 10
-432 76 -239 246 -296 418 -141 124 112 184 293 162 494 -15 135 -61 248 -133
329 -65 72 -126 98 -196 84z"/>
<path d="M5353 10895 c-205 -55 -313 -211 -313 -450 0 -83 29 -206 67 -285 39
-80 134 -171 206 -198 215 -81 356 73 357 389 0 167 -47 343 -132 499 l-33 60
-50 -1 c-27 0 -74 -7 -102 -14z"/>
<path d="M4584 10511 c-33 -9 -77 -27 -97 -40 -56 -35 -124 -116 -148 -179
-43 -112 -33 -285 22 -394 68 -134 273 -249 387 -218 48 12 102 69 121 127 21
64 25 246 7 349 -20 116 -59 243 -98 317 l-31 57 -51 -1 c-28 0 -78 -8 -112
-18z"/>
<path d="M9824 10455 c-81 -175 -122 -435 -93 -590 28 -154 105 -211 241 -179
70 17 172 71 209 111 84 91 129 260 109 405 -29 199 -147 309 -351 325 l-79 6
-36 -78z"/>
<path d="M2285 10062 c-123 -76 -372 -378 -617 -752 -318 -484 -545 -965 -621
-1320 -28 -125 -42 -273 -32 -318 10 -47 190 -185 294 -226 85 -33 268 -15
296 29 17 26 23 68 35 255 30 456 119 732 349 1089 311 480 441 830 402 1081
-12 73 -52 180 -68 180 -4 0 -21 -8 -38 -18z"/>
<path d="M12251 10024 c-32 -85 -42 -176 -30 -280 27 -248 138 -504 397 -919
229 -367 286 -508 322 -790 9 -74 40 -506 40 -566 0 -24 5 -27 58 -37 118 -23
177 -25 234 -8 60 17 177 90 275 170 l63 51 0 68 c1 502 -538 1568 -1121 2219
-48 53 -93 105 -100 116 -9 12 -32 21 -65 26 l-51 6 -22 -56z"/>
<path d="M3888 10000 c-78 -23 -120 -92 -139 -227 -19 -134 3 -360 53 -547
l21 -78 106 5 c143 7 190 25 267 101 78 79 99 138 99 281 0 110 -13 170 -57
257 -51 105 -127 166 -248 202 -59 18 -63 18 -102 6z"/>
<path d="M10565 9969 c-114 -27 -214 -170 -246 -355 -43 -246 91 -440 322
-469 92 -11 143 28 205 160 100 210 83 499 -36 614 -59 57 -142 74 -245 50z"/>
<path d="M2585 9908 c-109 -57 -132 -94 -170 -278 -47 -223 -92 -326 -278
-646 -223 -384 -320 -580 -385 -784 -64 -200 -81 -352 -67 -591 l7 -126 48
-12 c43 -11 51 -10 81 8 31 19 35 28 76 183 24 90 53 204 64 253 53 231 160
436 449 865 133 197 173 263 252 415 37 72 68 127 68 124 0 -14 -52 -144 -85
-208 -19 -38 -85 -147 -146 -243 -333 -515 -463 -773 -524 -1033 -21 -92 -36
-281 -27 -340 l7 -50 165 -11 c91 -6 166 -10 168 -9 1 1 7 49 12 106 11 114
31 259 35 259 2 0 1 -42 -2 -93 -9 -140 30 -333 65 -323 9 3 28 -3 42 -14 l25
-20 -25 0 c-14 0 -212 9 -440 20 -538 26 -483 27 -475 -12 25 -124 81 -218
204 -338 47 -47 136 -118 196 -159 124 -85 351 -203 470 -245 382 -136 635
-270 845 -450 152 -131 144 -145 -17 -28 -222 163 -375 245 -668 356 -369 141
-519 235 -915 574 -535 458 -868 622 -1187 585 -116 -14 -201 -45 -298 -111
-80 -54 -108 -91 -134 -176 l-19 -61 157 -80 c345 -178 658 -391 807 -547 72
-76 99 -128 124 -241 22 -100 133 -273 341 -532 91 -114 162 -192 517 -566
289 -305 393 -467 455 -709 14 -56 20 -124 24 -271 6 -207 -1 -319 -44 -794
-20 -212 -27 -354 -27 -528 l-1 -239 25 -20 c81 -66 384 -183 638 -247 319
-81 753 -141 1019 -141 l96 0 -7 213 c-33 1017 -128 2099 -236 2679 -51 278
-122 534 -181 650 -10 20 -133 189 -272 376 -301 402 -378 521 -513 787 -146
289 -184 419 -184 631 0 182 24 285 135 584 40 107 79 215 85 240 30 110 30
237 1 312 l-10 27 -48 -16 c-40 -13 -58 -28 -115 -97 -36 -44 -76 -92 -87
-106 -21 -24 40 86 119 215 218 358 244 539 94 661 -44 36 -45 36 -65 18 -11
-10 -38 -55 -58 -99 -21 -44 -43 -91 -50 -105 -6 -14 -9 -16 -5 -5 50 164 54
255 15 368 -26 75 -102 217 -115 217 -6 -1 -29 -10 -51 -22z"/>
<path d="M11967 9889 c-153 -101 -176 -260 -77 -531 42 -115 135 -286 316
-583 402 -662 438 -737 510 -1064 44 -198 50 -216 81 -236 24 -16 27 -16 52 2
60 43 98 179 86 308 -29 327 -184 753 -400 1099 -177 283 -236 418 -320 726
-33 124 -85 228 -135 274 -22 20 -46 36 -53 36 -8 0 -35 -14 -60 -31z"/>
<path d="M5450 9600 c-118 -12 -316 -53 -456 -96 -672 -203 -1109 -590 -1289
-1139 -118 -361 -106 -703 40 -1123 73 -211 195 -468 442 -930 269 -506 335
-680 397 -1049 46 -272 69 -584 96 -1283 34 -873 91 -1229 246 -1530 111 -216
249 -337 469 -412 77 -27 108 -32 220 -36 109 -3 144 -1 219 17 275 66 513
265 654 547 99 197 141 373 149 629 12 366 -64 696 -217 954 -113 190 -221
321 -495 601 -384 393 -480 503 -608 697 -280 425 -313 827 -101 1222 124 231
293 397 644 633 649 437 775 541 911 752 165 254 196 526 103 892 -57 227
-121 351 -215 420 -115 84 -390 176 -659 219 -113 19 -430 27 -550 15z"/>
<path d="M8810 9604 c-14 -2 -65 -9 -115 -15 -111 -14 -348 -61 -474 -94 -233
-62 -353 -169 -430 -380 -99 -273 -126 -578 -72 -790 28 -108 108 -268 180
-357 134 -169 258 -267 705 -562 160 -106 336 -229 391 -273 277 -223 430
-447 497 -728 17 -72 22 -122 22 -255 1 -240 -32 -373 -143 -585 -115 -220
-217 -345 -611 -750 -292 -299 -412 -436 -498 -566 -397 -600 -381 -1501 36
-1950 174 -187 415 -291 674 -290 332 1 598 178 743 496 157 344 221 854 255
2025 6 195 15 416 21 490 35 462 140 770 466 1365 262 478 373 721 452 990 93
317 100 656 19 930 -135 455 -486 843 -983 1085 -203 99 -369 153 -600 195
-86 16 -475 30 -535 19z"/>
<path d="M11677 9543 c-15 -25 -37 -175 -37 -257 0 -119 20 -187 93 -309 30
-51 71 -123 92 -161 l39 -69 -55 43 c-45 36 -145 90 -166 90 -11 0 5 -265 21
-338 15 -71 59 -208 144 -452 119 -340 96 -574 -95 -974 -153 -319 -260 -489
-473 -751 -287 -354 -339 -434 -411 -627 -110 -300 -170 -672 -219 -1368 -11
-157 -34 -433 -50 -615 -67 -740 -87 -1085 -76 -1268 l8 -117 116 0 c503 0
1075 134 1576 368 l99 46 -7 101 c-4 55 -18 222 -31 370 -43 486 -49 596 -49
905 1 407 18 509 121 718 85 174 163 269 493 607 326 333 407 427 525 610 63
96 167 296 229 437 77 175 236 304 721 585 266 154 335 197 335 206 0 25 -51
107 -94 152 -127 129 -371 190 -606 151 -278 -46 -454 -151 -930 -556 -446
-381 -521 -430 -865 -570 -110 -45 -297 -129 -415 -187 -118 -58 -231 -112
-250 -120 l-35 -15 40 42 c113 117 346 234 770 385 161 57 252 101 368 179
208 139 405 335 472 470 57 113 97 102 -392 110 -235 4 -429 8 -430 10 -2 2 3
22 12 45 33 94 37 196 15 350 -11 79 -19 146 -17 147 2 2 12 -29 22 -68 12
-50 19 -129 23 -247 l5 -174 129 6 c144 6 211 28 235 77 21 41 15 128 -17 255
-78 309 -178 515 -481 991 -154 242 -209 335 -259 434 -39 78 -110 274 -110
304 0 25 -121 69 -133 49z"/>
<path d="M3394 9320 c-32 -13 -70 -64 -88 -118 -22 -66 -33 -203 -25 -303 6
-67 14 -95 51 -167 41 -82 46 -87 78 -90 48 -5 146 16 195 40 153 77 185 240
86 436 -16 33 -53 84 -81 115 -75 82 -152 113 -216 87z"/>
<path d="M11036 9288 c-112 -75 -162 -252 -139 -491 l6 -68 69 -41 c76 -45
128 -55 221 -44 l54 7 30 77 c72 184 83 365 29 475 -38 79 -82 110 -160 115
-56 4 -65 1 -110 -30z"/>
<path d="M6160 6904 c-315 -61 -531 -244 -643 -546 -41 -109 -52 -184 -52
-343 1 -116 5 -165 20 -215 44 -154 122 -275 271 -423 121 -121 262 -228 544
-414 570 -376 679 -464 844 -683 78 -104 164 -200 177 -200 4 0 47 53 95 118
112 150 362 399 514 513 108 82 238 169 552 369 385 246 557 436 638 704 82
272 28 582 -138 796 -97 124 -229 224 -361 273 -252 94 -587 68 -876 -67 -110
-51 -156 -83 -264 -175 -89 -76 -133 -106 -174 -116 -25 -7 -38 3 -140 101
-123 120 -197 166 -362 224 -184 65 -275 82 -455 85 -91 2 -176 1 -190 -1z"/>
<path d="M804 5483 c3 -16 8 -59 12 -98 28 -304 194 -849 416 -1370 90 -210
297 -625 374 -750 66 -105 158 -215 181 -215 26 0 57 392 57 715 1 229 -2 275
-23 385 -44 239 -103 385 -213 523 -162 204 -766 837 -799 837 -6 0 -8 -11 -5
-27z"/>
<path d="M13639 5312 c-189 -193 -503 -528 -610 -652 -123 -142 -177 -269
-199 -472 -16 -150 -12 -825 5 -922 14 -78 51 -168 70 -170 16 -2 157 247 290
509 345 682 572 1326 614 1744 13 125 13 131 2 131 -4 0 -82 -75 -172 -168z"/>
<path d="M11410 1715 c-530 -63 -746 -101 -890 -156 -41 -16 -160 -79 -265
-140 -650 -380 -1328 -616 -2090 -729 -238 -36 -429 -51 -715 -57 -846 -18
-1623 124 -2366 432 -196 82 -516 237 -689 335 -284 161 -329 178 -585 226
-205 38 -835 112 -848 100 -9 -9 43 -91 99 -156 201 -234 702 -561 1394 -910
315 -159 503 -239 790 -336 994 -337 2163 -413 3270 -213 434 79 826 191 1240
357 194 78 343 148 579 274 576 307 1018 598 1231 812 116 117 173 197 138
195 -10 -1 -142 -16 -293 -34z"/>
</g>
</svg>
